# xmcd
#
# Track frame offsets:
#	150
#	15989
#	30774
#	52893
#	67870
#	82407
#	95909
#	112351
#	129196
#	145176
#	162433
#	177960
#	191612
#	211366
#	224825
#	242647
#	261284
#	274654
#	287783
#
# Disc length: 4018 seconds
#
# Revision: 1
# Processed by: cddbd v1.5.2PL0 Copyright (c) Steve Scherf et al.
# Submitted via: audiograbber 1.83.01
#
DISCID=1e0fb013
DTITLE=BROOKS&DUNN - The Greatest Hits Collection
DYEAR=1997
DGENRE=Country
TTITLE0=My Maria
TTITLE1=Honky Tonk Truth
TTITLE2=You´re Gonna Miss Me When I´m Gone
TTITLE3=Boot Scootin´ Boogie
TTITLE4=He´s Got You
TTITLE5=Hard Workin´ Man
TTITLE6=That Ain´t No Way To Go
TTITLE7=Rock My World (Little Country Girl)
TTITLE8=Neon Moon
TTITLE9=Lost And Found
TTITLE10=She´s Not The Cheatin´ Kind
TTITLE11=Brand New Man
TTITLE12=Days Of Thunder
TTITLE13=We´ll Burn That Bridge
TTITLE14=She Used To Be Mine
TTITLE15=Mama Don´t Get Dressed Up For Nothing
TTITLE16=My Next Broken Heart
TTITLE17=Whiskey Under The Bridge
TTITLE18=Little Miss Honky Tonk
EXTD=
EXTT0=
EXTT1=
EXTT2=
EXTT3=
EXTT4=
EXTT5=
EXTT6=
EXTT7=
EXTT8=
EXTT9=
EXTT10=
EXTT11=
EXTT12=
EXTT13=
EXTT14=
EXTT15=
EXTT16=
EXTT17=
EXTT18=
PLAYORDER=
